<?xml version="1.0" encoding="UTF-8"?>
<svg id="_图层_2" data-name="图层 2" xmlns="http://www.w3.org/2000/svg" viewBox="0 0 114.83 23.71">
  <defs>
    <style>
      .cls-1 {
        fill: #dd1621;
      }

      .cls-2 {
        fill: #dd1d22;
        fill-rule: evenodd;
      }

      .cls-3 {
        fill: #4f4f4f;
      }
    </style>
  </defs>
  <g id="_图层_1-2" data-name="图层 1">
    <g>
      <path class="cls-2" d="M15.45,23.71h6.21L10.83,0,0,23.71H6.21c.91-1.74,2.64-2.92,4.62-2.92s3.71,1.17,4.62,2.92h0Zm-1.82-9.47l-2.8-6.13-2.8,6.13c-.21,.38-.32,.8-.32,1.25,0,1.56,1.4,2.82,3.12,2.82s3.12-1.26,3.12-2.82c0-.45-.12-.87-.32-1.25h0Z"/>
      <path class="cls-1" d="M18.22,5.66l7.72,16.54h.68l7.2-16.54h-1.26l-5.57,12.86-5.97-12.86h-2.81Zm17.64,16.16h5.91c1.47,0,2.78-.21,3.92-.64,1.14-.43,2.1-1.01,2.88-1.76s1.37-1.62,1.77-2.62c.41-1,.61-2.07,.61-3.21,0-1.2-.23-2.3-.68-3.31-.45-1.01-1.13-1.89-2.03-2.67-.79-.68-1.76-1.18-2.93-1.49-1.17-.31-2.57-.46-4.2-.46h-5.26V21.82h0Zm2.66-14.96h2.84c.94,0,1.8,.17,2.6,.5,.79,.33,1.48,.8,2.05,1.4,.57,.6,1.02,1.32,1.34,2.15,.32,.83,.48,1.74,.48,2.74,0,1.14-.17,2.14-.51,3.01-.34,.87-.8,1.6-1.39,2.19-.58,.59-1.27,1.04-2.06,1.34s-1.63,.45-2.54,.45h-2.81V6.86h0Z"/>
      <path class="cls-3" d="M55.86,20.28c-.77-.59-1.32-1.41-1.65-2.48l-1.43,.6c.21,.6,.48,1.14,.81,1.6,.33,.47,.72,.86,1.17,1.19,.45,.32,.98,.57,1.59,.74s1.28,.26,2.04,.26c.94,0,1.76-.12,2.48-.37,.71-.25,1.31-.58,1.78-1,.47-.42,.83-.91,1.07-1.47,.24-.56,.36-1.16,.36-1.8,0-.56-.13-1.08-.38-1.54-.25-.46-.59-.88-1.02-1.27-.42-.39-.9-.74-1.44-1.07-.54-.33-1.08-.64-1.64-.94-.56-.3-1.1-.6-1.64-.89-.54-.29-1.01-.59-1.44-.91-.42-.31-.76-.65-1.02-1-.25-.35-.38-.74-.38-1.17,0-.3,.06-.6,.19-.89,.12-.29,.31-.55,.56-.78,.25-.23,.56-.42,.94-.56,.37-.14,.81-.21,1.31-.21,.56,0,1.07,.08,1.51,.24,.45,.16,.84,.38,1.18,.68,.34,.29,.64,.64,.88,1.05,.25,.41,.45,.86,.61,1.36l1.36-.64c-.38-1.21-1.01-2.14-1.88-2.78-.87-.64-2.05-.96-3.55-.96-.83,0-1.57,.11-2.21,.33s-1.18,.52-1.63,.91c-.44,.39-.78,.85-1,1.38-.23,.53-.34,1.1-.34,1.72s.12,1.16,.37,1.64c.25,.47,.58,.9,.98,1.28,.41,.38,.87,.73,1.39,1.04,.52,.31,1.06,.61,1.61,.9,.55,.29,1.08,.57,1.61,.85,.52,.28,.99,.58,1.39,.91,.41,.32,.73,.68,.98,1.06,.25,.39,.37,.83,.37,1.32,0,.41-.09,.77-.27,1.09-.18,.31-.42,.58-.72,.79-.3,.21-.64,.38-1.02,.48-.38,.11-.77,.16-1.16,.16-1.04,0-1.95-.29-2.72-.88h0Zm9.24-14.62l6.29,16.3h.91l3.76-10.07,3.91,10.07h.8l6.1-16.3h-1.31l-4.6,12.34-4.31-11.14-4.16,11.08-4.71-12.28h-2.68Z"/>
      <path class="cls-3" d="M93.7,5.29l-7.64,16.53h1.34l2.5-5.39h6.78l2.42,5.39h2.7l-7.45-16.53h-.66Zm-.37,3.7l2.88,6.39h-5.83l2.96-6.39h0Zm10.55,12.83h2.66v-7.48c.14,.04,.33,.07,.57,.1,.24,.03,.5,.06,.78,.09,.28,.03,.57,.05,.88,.06,.3,.01,.59,.02,.87,.02,.65,0,1.29-.09,1.91-.27,.62-.18,1.18-.44,1.67-.8,.49-.35,.89-.81,1.18-1.35,.3-.55,.45-1.19,.45-1.92s-.15-1.39-.46-1.97-.73-1.06-1.26-1.45c-.54-.39-1.16-.69-1.89-.89-.72-.2-1.5-.31-2.33-.31h-5.02V21.82h0Zm2.66-14.96h1.89c.49,0,.95,.08,1.39,.25,.43,.17,.81,.41,1.13,.72,.32,.31,.57,.68,.76,1.13,.18,.44,.27,.93,.27,1.48,0,.46-.07,.9-.21,1.31-.14,.41-.35,.76-.64,1.06-.28,.3-.64,.54-1.07,.72-.43,.18-.93,.27-1.51,.27-.36,0-.71-.04-1.05-.12-.34-.08-.66-.16-.96-.25V6.86h0Z"/>
    </g>
  </g>
</svg>