<?xml version="1.0" encoding="utf-8"?>
<!-- Generator: Adobe Illustrator 27.0.0, SVG Export Plug-In . SVG Version: 6.00 Build 0)  -->
<svg version="1.1" id="图层_1" xmlns="http://www.w3.org/2000/svg" xmlns:xlink="http://www.w3.org/1999/xlink" x="0px" y="0px"
	 viewBox="0 0 394.76 296.06" style="enable-background:new 0 0 394.76 296.06;" xml:space="preserve">
<style type="text/css">
	.st0{fill-rule:evenodd;clip-rule:evenodd;fill:#DD1D22;}
	.st1{fill:#DD1621;}
	.st2{fill:#4F4F4F;}
	.st3{fill:#DD1D22;}
	.st4{fill:#FFFFFF;}
	.st5{fill:none;stroke:#DD1621;stroke-miterlimit:10;stroke-dasharray:4,2,0,0,0,0;}
	.st6{fill:none;stroke:#000000;stroke-miterlimit:10;}
	.st7{fill-rule:evenodd;clip-rule:evenodd;fill:#DD1621;}
	.st8{fill-rule:evenodd;clip-rule:evenodd;fill:#161616;}
	.st9{fill-rule:evenodd;clip-rule:evenodd;fill:#FFFFFF;}
	.st10{fill:none;stroke:#FFFFFF;stroke-miterlimit:10;}
</style>
<path class="st10" d="M303.2,416.53h143.25L196.51-130.78L-53.43,416.53H89.82c21.07-40.19,60.96-67.31,106.69-67.31
	C242.24,349.22,282.13,376.34,303.2,416.53L303.2,416.53z M261.13,198.01L196.51,56.49l-64.63,141.52
	c-4.78,8.7-7.47,18.51-7.47,28.89c0,35.95,32.28,65.09,72.1,65.09c39.82,0,72.1-29.14,72.1-65.09
	C268.61,216.52,265.92,206.71,261.13,198.01L261.13,198.01z"/>
<g>
	<defs>
		<rect id="SVGID_1_" x="-91.48" y="-333.04" width="900" height="1440"/>
	</defs>
	<clipPath id="SVGID_00000080203576107275363350000009905604055397385091_">
		<use xlink:href="#SVGID_1_"  style="overflow:visible;"/>
	</clipPath>
</g>
</svg>
